<svg width="20" height="20" viewBox="0 0 20 20" fill="none" xmlns="http://www.w3.org/2000/svg">
<path d="M10 19.1625L8.975 18.2375C7.20833 16.6208 5.75 15.225 4.6 14.05C3.45 12.875 2.53333 11.825 1.85 10.9C1.16667 9.97499 0.6875 9.13749 0.4125 8.38749C0.1375 7.63749 0 6.87916 0 6.11249C0 4.61249 0.504167 3.35833 1.5125 2.34999C2.52083 1.34166 3.76667 0.837494 5.25 0.837494C6.2 0.837494 7.07917 1.06249 7.8875 1.51249C8.69583 1.96249 9.4 2.61249 10 3.46249C10.7 2.56249 11.4417 1.89999 12.225 1.47499C13.0083 1.04999 13.85 0.837494 14.75 0.837494C16.2333 0.837494 17.4792 1.34166 18.4875 2.34999C19.4958 3.35833 20 4.61249 20 6.11249C20 6.87916 19.8625 7.63749 19.5875 8.38749C19.3125 9.13749 18.8333 9.97499 18.15 10.9C17.4667 11.825 16.55 12.875 15.4 14.05C14.25 15.225 12.7917 16.6208 11.025 18.2375L10 19.1625ZM10 17.1875C11.6833 15.6375 13.0708 14.3083 14.1625 13.2C15.2542 12.0917 16.1208 11.1208 16.7625 10.2875C17.4042 9.45416 17.8542 8.71249 18.1125 8.06249C18.3708 7.41249 18.5 6.76249 18.5 6.11249C18.5 5.01249 18.15 4.10833 17.45 3.39999C16.75 2.69166 15.85 2.33749 14.75 2.33749C13.9 2.33749 13.1083 2.59999 12.375 3.12499C11.6417 3.64999 11.05 4.38749 10.6 5.33749H9.375C8.94167 4.40416 8.35833 3.67083 7.625 3.13749C6.89167 2.60416 6.1 2.33749 5.25 2.33749C4.15 2.33749 3.25 2.69166 2.55 3.39999C1.85 4.10833 1.5 5.01249 1.5 6.11249C1.5 6.76249 1.62917 7.41666 1.8875 8.07499C2.14583 8.73333 2.59583 9.48333 3.2375 10.325C3.87917 11.1667 4.75 12.1375 5.85 13.2375C6.95 14.3375 8.33333 15.6542 10 17.1875Z" fill="black"/>
</svg>
